<svg id="Icon" enable-background="new -335 337 128 128" height="512" viewBox="-335 337 128 128" width="512" xmlns="http://www.w3.org/2000/svg"><ellipse cx="-272.667" cy="444.187" fill="#b8cbcd" rx="47.667" ry="11.813"/><path d="m-256.502 353.916c-1.506-1.604-4.538-2.916-6.738-2.916h-38.759c-2.2 0-4 1.8-4 4v83.894c0 2.2 1.8 4.003 4 4.006l62 .095c2.2.003 4-1.794 4-3.994v-59.252c0-2.2-1.232-5.312-2.738-6.916z" fill="#b2eda6"/><path d="m-239 380h-23c-1.105 0-2-.896-2-2v-25c0-1.104.895-2 2-2 1.104 0 2 .896 2 2v23h21c1.104 0 2 .896 2 2s-.896 2-2 2z" fill="#3c663e"/><path d="m-291.215 384c-.376 0-.756-.106-1.094-.327-.924-.605-1.183-1.845-.578-2.769l13.095-20c.605-.924 1.845-1.182 2.769-.578.924.605 1.183 1.845.578 2.769l-13.095 20c-.383.586-1.023.905-1.675.905z" fill="#3c663e"/><path d="m-278.116 384c-.652 0-1.292-.318-1.675-.904l-13.095-20c-.605-.924-.346-2.164.578-2.769.926-.605 2.165-.346 2.769.578l13.095 20c.605.924.346 2.164-.578 2.769-.338.22-.719.326-1.094.326z" fill="#3c663e"/><path d="m-294.999 390h48v42h-48z" fill="#fff"/><g fill="#3c663e"><path d="m-247 434h-48c-1.105 0-2-.896-2-2v-42c0-1.104.895-2 2-2h48c1.104 0 2 .896 2 2v42c0 1.104-.896 2-2 2zm-46-4h44v-38h-44z"/><path d="m-246.999 406h-48c-1.105 0-2-.896-2-2s.895-2 2-2h48c1.104 0 2 .895 2 2s-.896 2-2 2z"/><path d="m-246.999 420h-48c-1.105 0-2-.896-2-2s.895-2 2-2h48c1.104 0 2 .896 2 2s-.896 2-2 2z"/><path d="m-269.999 433c-1.105 0-2-.896-2-2v-41c0-1.104.895-2 2-2 1.104 0 2 .896 2 2v41c0 1.104-.896 2-2 2z"/><path d="m-239.995 446c-.003 0-.006 0-.009 0l-62-.094c-3.857-.006-6.996-3.149-6.996-7.006v-83.894c0-3.86 3.14-7 7-7h38.759c3.021 0 6.858 1.661 8.925 3.862l17.765 18.917c2.024 2.157 3.551 6.013 3.551 8.97v59.251c0 1.866-.73 3.623-2.055 4.946-1.323 1.321-3.077 2.048-4.94 2.048zm-.005-5.994c.352 0 .596-.19.706-.3s.294-.347.294-.7v-59.251c0-1.445-.936-3.809-1.925-4.863l-17.765-18.917v-.001c-.933-.994-3.188-1.969-4.551-1.969h-38.759c-.542 0-1 .458-1 1v83.894c0 .544.455 1.105 1 1.106z"/></g></svg>