<?xml version="1.0"?>
<svg xmlns="http://www.w3.org/2000/svg" xmlns:xlink="http://www.w3.org/1999/xlink" xmlns:svgjs="http://svgjs.com/svgjs" version="1.1" width="512" height="512" x="0" y="0" viewBox="0 0 512 512" style="enable-background:new 0 0 512 512" xml:space="preserve" class=""><g><g xmlns="http://www.w3.org/2000/svg"><g><path d="m0 482h512v30h-512z" fill="#ffffff" data-original="#000000" class=""/></g><g><path d="m256.002 451c-45.785-.141-92.513-17.636-128.297-48.001-29.58-25.101-65.164-70.551-66.705-144.526l1-.305v-168.168h-31v-90h150v90h-30l.083 167.25c1.973 74.924 65.352 103.387 104.959 103.75 39.606-.364 102.986-28.826 104.958-103.75l.083-167.25h-30.083v-90h150v90h-30l-.089 168.473c-1.549 74.372-37.466 119.892-67.324 144.981-35.792 30.077-82.295 47.406-127.585 47.546z" fill="#ffffff" data-original="#000000" class=""/></g></g></g></svg>
